<?xml version="1.0" standalone="no"?>
<!DOCTYPE svg PUBLIC "-//W3C//DTD SVG 20010904//EN"
 "http://www.w3.org/TR/2001/REC-SVG-20010904/DTD/svg10.dtd">
<svg version="1.0" xmlns="http://www.w3.org/2000/svg"
 width="360.000000pt" height="360.000000pt" viewBox="0 0 360.000000 360.000000"
 preserveAspectRatio="xMidYMid meet">

<g transform="translate(0.000000,360.000000) scale(0.100000,-0.100000)"
fill="#000000" stroke="none">
<path d="M1732 3365 c-17 -8 -36 -25 -41 -38 -9 -23 -27 -180 -51 -446 -8 -84
-8 -117 1 -127 8 -10 9 -18 0 -28 -6 -7 -14 -68 -18 -135 -5 -97 -9 -124 -22
-130 -9 -5 -66 -20 -128 -36 l-111 -27 -11 -61 c-6 -34 -13 -82 -17 -107 -6
-39 -16 -53 -68 -101 -61 -56 -109 -128 -127 -192 -5 -18 -18 -111 -30 -207
-26 -224 -46 -358 -61 -393 -7 -19 -20 -30 -39 -34 -22 -4 -29 -11 -29 -29 0
-17 -6 -24 -20 -24 -16 0 -20 -7 -20 -37 0 -37 -2 -39 -69 -70 -73 -35 -91
-59 -91 -127 l0 -31 -80 3 -80 4 0 -44 c1 -50 21 -111 46 -139 20 -23 23 -20
-46 -54 -82 -40 -100 -61 -100 -111 0 -37 -3 -43 -27 -49 -40 -9 -82 -53 -94
-97 -6 -25 -16 -38 -27 -38 -37 0 -96 -23 -118 -45 -22 -22 -24 -33 -24 -110
l0 -85 1570 0 1570 0 0 85 c0 77 -2 88 -24 110 -22 22 -81 45 -117 45 -10 0
-20 15 -27 39 -15 47 -53 88 -93 96 -26 6 -29 10 -29 49 0 50 -18 70 -100 111
-69 34 -66 31 -46 54 25 28 45 89 46 139 l0 44 -80 -4 -80 -3 0 37 c0 63 -18
86 -92 121 -66 31 -68 33 -68 70 0 30 -4 37 -20 37 -14 0 -20 7 -20 24 0 18
-7 25 -29 29 -19 4 -32 15 -39 34 -14 32 -43 232 -67 443 -20 184 -51 256
-148 347 l-63 59 -18 104 c-9 57 -18 105 -19 106 -1 1 -56 16 -121 32 -65 17
-122 36 -126 42 -4 6 -10 63 -13 127 -4 63 -12 121 -18 129 -9 11 -9 17 0 28
9 10 9 44 1 132 -21 231 -42 418 -51 442 -17 45 -111 65 -177 37z m-313 -1385
c0 -3 -16 -23 -36 -44 l-36 -39 -34 36 c-18 20 -33 41 -33 46 0 5 15 27 33 49
l32 40 37 -42 c20 -22 37 -43 37 -46z m190 46 c17 -21 31 -42 31 -46 0 -3 -14
-25 -32 -48 l-32 -41 -32 37 c-18 20 -33 43 -34 50 0 11 62 94 67 89 0 -1 15
-19 32 -41z m720 -46 c0 -3 -16 -23 -35 -45 l-36 -40 -34 39 c-19 22 -34 43
-34 47 0 4 15 25 33 47 l32 40 37 -42 c20 -22 37 -43 37 -46z m-485 37 l29
-37 -29 -37 c-17 -20 -35 -38 -40 -40 -6 -2 -25 15 -43 37 l-32 40 32 40 c18
22 37 39 43 37 5 -2 23 -20 40 -40z m225 3 l32 -40 -32 -40 c-18 -22 -36 -40
-40 -40 -4 0 -22 18 -39 40 l-32 40 32 40 c17 22 35 40 39 40 4 0 22 -18 40
-40z m141 -228 c0 -7 -15 -31 -32 -52 l-32 -38 -33 36 c-18 21 -32 42 -33 48
0 6 14 29 32 52 l32 41 32 -37 c18 -20 33 -43 34 -50z m-945 51 c39 -45 40
-59 3 -102 l-32 -39 -33 36 c-18 21 -32 43 -33 51 0 14 50 79 63 80 4 1 19
-11 32 -26z m234 -10 c17 -21 31 -41 31 -44 0 -4 -15 -25 -34 -47 l-33 -40
-37 44 -37 44 33 40 c18 22 36 40 40 40 3 0 20 -17 37 -37z m231 -3 l32 -40
-32 -40 c-17 -22 -35 -40 -40 -40 -5 0 -23 18 -40 40 l-32 40 32 40 c17 22 35
40 40 40 5 0 23 -18 40 -40z m228 0 l33 -40 -32 -40 c-18 -22 -36 -40 -40 -40
-8 0 -69 71 -69 80 0 9 61 80 68 80 4 0 22 -18 40 -40z m441 0 l32 -40 -31
-40 c-18 -22 -35 -40 -40 -40 -5 0 -23 18 -40 40 l-32 40 32 40 c17 22 35 40
39 40 4 0 22 -18 40 -40z m-1000 -260 c-52 -70 -46 -66 -72 -41 -13 12 -30 32
-37 45 -11 22 -9 28 21 65 l34 41 37 -42 36 -43 -19 -25z m241 24 c0 -6 -15
-28 -33 -49 l-33 -38 -36 43 -37 42 36 44 37 43 32 -37 c18 -20 33 -42 34 -48z
m230 -1 c0 -9 -61 -83 -68 -83 -4 0 -22 18 -40 41 l-34 40 37 44 36 45 35 -41
c19 -22 34 -43 34 -46z m212 25 l19 -28 -33 -40 c-18 -22 -36 -40 -39 -40 -3
0 -20 18 -38 40 l-33 41 34 44 c31 41 34 42 52 27 10 -10 27 -29 38 -44z m240
-34 c-4 -6 -20 -26 -36 -45 l-28 -33 -34 39 c-19 22 -34 44 -34 48 0 5 15 26
33 48 l32 39 37 -42 c20 -24 33 -48 30 -54z m-1049 -167 l36 -44 -38 -43 -37
-43 -36 44 -36 43 35 43 c20 24 37 43 38 43 1 0 19 -19 38 -43z m256 -42 c1
-5 -15 -28 -33 -50 -38 -44 -31 -47 -85 25 l-19 26 35 43 36 43 33 -38 c18
-22 33 -43 33 -49z m199 43 c17 -22 32 -43 32 -47 -1 -3 -16 -24 -35 -45 l-35
-39 -35 39 c-19 21 -34 42 -35 45 0 8 63 88 70 88 3 0 20 -18 38 -41z m254
-53 c-4 -6 -20 -27 -35 -45 l-29 -34 -34 40 c-18 21 -33 43 -34 47 0 5 15 26
33 48 l32 39 37 -41 c23 -25 35 -46 30 -54z m201 52 l35 -43 -36 -43 -36 -44
-37 44 -37 43 36 43 c20 24 37 43 38 43 1 0 17 -19 37 -43z m215 1 c17 -22 32
-43 32 -47 -1 -3 -16 -24 -35 -45 l-35 -39 -35 39 c-19 21 -34 42 -35 45 0 8
63 88 70 88 3 0 20 -18 38 -41z"/>
</g>
</svg>
