<?xml version="1.0" standalone="no"?>
<!DOCTYPE svg PUBLIC "-//W3C//DTD SVG 20010904//EN"
 "http://www.w3.org/TR/2001/REC-SVG-20010904/DTD/svg10.dtd">
<svg version="1.0" xmlns="http://www.w3.org/2000/svg"
 width="225.000000pt" height="225.000000pt" viewBox="0 0 225.000000 225.000000"
 preserveAspectRatio="xMidYMid meet">

<g transform="translate(0.000000,225.000000) scale(0.100000,-0.100000)"
fill="#000000" stroke="none">
<path d="M965 1403 c-71 -19 -134 -39 -140 -44 -18 -18 39 -9 168 27 l130 36
131 -36 c129 -35 190 -45 171 -27 -14 12 -276 81 -305 80 -14 0 -83 -16 -155
-36z"/>
<path d="M1012 1380 c-57 -16 -109 -31 -115 -34 -7 -2 96 -4 228 -4 l240 0
-120 34 c-66 18 -122 33 -125 33 -3 -1 -52 -14 -108 -29z"/>
<path d="M810 1320 c0 -6 112 -10 315 -10 203 0 315 4 315 10 0 6 -112 10
-315 10 -203 0 -315 -4 -315 -10z"/>
<path d="M515 1264 l-60 -34 178 0 177 0 0 35 0 35 -117 -1 c-115 0 -119 -1
-178 -35z"/>
<path d="M830 1130 l0 -170 298 2 297 3 0 165 0 165 -297 3 -298 2 0 -170z
m49 30 c1 -112 -1 -130 -14 -130 -13 0 -15 18 -14 130 1 100 4 130 14 130 10
0 13 -30 14 -130z m73 3 c-4 -120 -6 -142 -16 -132 -2 2 -6 61 -8 132 -2 108
-1 127 12 127 13 0 14 -19 12 -127z m77 -3 c1 -112 -1 -130 -14 -130 -13 0
-15 18 -14 130 1 100 4 130 14 130 10 0 13 -30 14 -130z m73 3 c-4 -120 -6
-142 -16 -132 -2 2 -6 61 -8 132 -2 108 -1 127 12 127 13 0 14 -19 12 -127z
m77 -3 c1 -112 -1 -130 -14 -130 -13 0 -15 18 -14 130 1 100 4 130 14 130 10
0 13 -30 14 -130z m72 0 c-2 -116 -5 -140 -15 -129 -2 2 -6 61 -8 132 -2 104
0 127 11 125 11 -2 13 -29 12 -128z m78 0 c1 -112 -1 -130 -14 -130 -13 0 -15
18 -14 130 1 100 4 130 14 130 10 0 13 -30 14 -130z m72 0 c-2 -116 -5 -140
-15 -129 -2 2 -6 61 -8 132 -2 104 0 127 11 125 11 -2 13 -29 12 -128z m-516
-150 c3 -5 -3 -10 -14 -10 -12 0 -21 5 -21 10 0 6 6 10 14 10 8 0 18 -4 21
-10z m75 0 c0 -5 -9 -10 -20 -10 -11 0 -20 5 -20 10 0 6 9 10 20 10 11 0 20
-4 20 -10z m70 0 c0 -5 -7 -10 -15 -10 -8 0 -15 5 -15 10 0 6 7 10 15 10 8 0
15 -4 15 -10z m80 0 c0 -5 -9 -10 -20 -10 -11 0 -20 5 -20 10 0 6 9 10 20 10
11 0 20 -4 20 -10z m70 0 c0 -5 -7 -10 -15 -10 -8 0 -15 5 -15 10 0 6 7 10 15
10 8 0 15 -4 15 -10z m75 0 c3 -5 -3 -10 -14 -10 -12 0 -21 5 -21 10 0 6 6 10
14 10 8 0 18 -4 21 -10z m75 0 c0 -5 -9 -10 -21 -10 -11 0 -17 5 -14 10 3 6
13 10 21 10 8 0 14 -4 14 -10z m75 0 c3 -5 -3 -10 -14 -10 -12 0 -21 5 -21 10
0 6 6 10 14 10 8 0 18 -4 21 -10z m-522 -27 c-7 -2 -21 -2 -30 0 -10 3 -4 5
12 5 17 0 24 -2 18 -5z m70 0 c-7 -2 -19 -2 -25 0 -7 3 -2 5 12 5 14 0 19 -2
13 -5z m80 0 c-7 -2 -21 -2 -30 0 -10 3 -4 5 12 5 17 0 24 -2 18 -5z m70 0
c-7 -2 -19 -2 -25 0 -7 3 -2 5 12 5 14 0 19 -2 13 -5z m80 0 c-7 -2 -21 -2
-30 0 -10 3 -4 5 12 5 17 0 24 -2 18 -5z m70 0 c-7 -2 -19 -2 -25 0 -7 3 -2 5
12 5 14 0 19 -2 13 -5z m80 0 c-7 -2 -21 -2 -30 0 -10 3 -4 5 12 5 17 0 24 -2
18 -5z m70 0 c-7 -2 -19 -2 -25 0 -7 3 -2 5 12 5 14 0 19 -2 13 -5z"/>
<path d="M1440 1265 l0 -35 178 0 177 0 -63 35 c-61 34 -65 35 -177 35 l-115
0 0 -35z"/>
<path d="M455 1210 c8 -14 355 -14 355 0 0 6 -67 10 -181 10 -117 0 -178 -3
-174 -10z"/>
<path d="M1440 1210 c0 -6 65 -10 174 -10 106 0 177 4 181 10 4 7 -57 10 -174
10 -114 0 -181 -4 -181 -10z"/>
<path d="M460 1165 c0 -13 26 -15 175 -15 149 0 175 2 175 15 0 13 -26 15
-175 15 -149 0 -175 -2 -175 -15z"/>
<path d="M1440 1165 c0 -13 26 -15 175 -15 149 0 175 2 175 15 0 13 -26 15
-175 15 -149 0 -175 -2 -175 -15z"/>
<path d="M460 1100 l0 -40 175 0 175 0 0 40 0 40 -175 0 -175 0 0 -40z m50 -5
c0 -14 -4 -25 -10 -25 -5 0 -10 11 -10 25 0 14 5 25 10 25 6 0 10 -11 10 -25z
m78 3 c-5 -32 -28 -35 -28 -4 0 17 5 26 16 26 10 0 14 -7 12 -22z m72 -3 c0
-16 -6 -25 -15 -25 -9 0 -15 9 -15 25 0 16 6 25 15 25 9 0 15 -9 15 -25z m70
0 c0 -14 -4 -25 -9 -25 -5 0 -11 11 -13 25 -4 17 -1 25 8 25 8 0 14 -11 14
-25z m70 0 c0 -14 -4 -25 -10 -25 -5 0 -10 11 -10 25 0 14 5 25 10 25 6 0 10
-11 10 -25z"/>
<path d="M1440 1100 l0 -40 175 0 175 0 0 40 0 40 -175 0 -175 0 0 -40z m30
-5 c0 -14 -4 -25 -10 -25 -5 0 -10 11 -10 25 0 14 5 25 10 25 6 0 10 -11 10
-25z m70 0 c0 -14 -4 -25 -10 -25 -5 0 -10 11 -10 25 0 14 5 25 10 25 6 0 10
-11 10 -25z m78 3 c-5 -32 -28 -35 -28 -4 0 17 5 26 16 26 10 0 14 -7 12 -22z
m72 -3 c0 -16 -6 -25 -15 -25 -9 0 -15 9 -15 25 0 16 6 25 15 25 9 0 15 -9 15
-25z m70 -1 c0 -31 -23 -28 -28 4 -2 15 2 22 12 22 11 0 16 -9 16 -26z"/>
<path d="M460 1000 l0 -40 175 0 175 0 0 40 0 40 -175 0 -175 0 0 -40z m50 -5
c0 -14 -4 -25 -10 -25 -5 0 -10 11 -10 25 0 14 5 25 10 25 6 0 10 -11 10 -25z
m78 3 c-5 -32 -28 -35 -28 -4 0 17 5 26 16 26 10 0 14 -7 12 -22z m72 -3 c0
-16 -6 -25 -15 -25 -9 0 -15 9 -15 25 0 16 6 25 15 25 9 0 15 -9 15 -25z m70
0 c0 -14 -4 -25 -9 -25 -5 0 -11 11 -13 25 -4 17 -1 25 8 25 8 0 14 -11 14
-25z m70 0 c0 -14 -4 -25 -10 -25 -5 0 -10 11 -10 25 0 14 5 25 10 25 6 0 10
-11 10 -25z"/>
<path d="M1440 1000 l0 -40 175 0 175 0 0 40 0 40 -175 0 -175 0 0 -40z m30
-5 c0 -14 -4 -25 -10 -25 -5 0 -10 11 -10 25 0 14 5 25 10 25 6 0 10 -11 10
-25z m70 0 c0 -14 -4 -25 -10 -25 -5 0 -10 11 -10 25 0 14 5 25 10 25 6 0 10
-11 10 -25z m78 3 c-5 -32 -28 -35 -28 -4 0 17 5 26 16 26 10 0 14 -7 12 -22z
m72 -3 c0 -16 -6 -25 -15 -25 -9 0 -15 9 -15 25 0 16 6 25 15 25 9 0 15 -9 15
-25z m70 -1 c0 -31 -23 -28 -28 4 -2 15 2 22 12 22 11 0 16 -9 16 -26z"/>
<path d="M460 930 c0 -7 228 -10 665 -10 437 0 665 3 665 10 0 7 -228 10 -665
10 -437 0 -665 -3 -665 -10z"/>
<path d="M460 868 l0 -38 150 0 c93 0 150 4 150 10 0 6 128 10 365 10 237 0
365 -4 365 -10 0 -6 57 -10 150 -10 l150 0 0 38 0 37 -665 0 -665 0 0 -37z
m50 -3 c0 -8 -4 -15 -10 -15 -5 0 -10 7 -10 15 0 8 5 15 10 15 6 0 10 -7 10
-15z m80 0 c0 -8 -7 -15 -15 -15 -8 0 -15 7 -15 15 0 8 7 15 15 15 8 0 15 -7
15 -15z m70 0 c0 -8 -7 -15 -15 -15 -8 0 -15 7 -15 15 0 8 7 15 15 15 8 0 15
-7 15 -15z m70 0 c0 -8 -4 -15 -10 -15 -5 0 -10 7 -10 15 0 8 5 15 10 15 6 0
10 -7 10 -15z m740 5 c0 -6 -122 -10 -345 -10 -223 0 -345 4 -345 10 0 6 122
10 345 10 223 0 345 -4 345 -10z m70 -5 c0 -8 -4 -15 -10 -15 -5 0 -10 7 -10
15 0 8 5 15 10 15 6 0 10 -7 10 -15z m80 0 c0 -8 -7 -15 -15 -15 -8 0 -15 7
-15 15 0 8 7 15 15 15 8 0 15 -7 15 -15z m70 0 c0 -8 -7 -15 -15 -15 -8 0 -15
7 -15 15 0 8 7 15 15 15 8 0 15 -7 15 -15z m70 0 c0 -8 -7 -15 -15 -15 -8 0
-15 7 -15 15 0 8 7 15 15 15 8 0 15 -7 15 -15z"/>
<path d="M750 810 c0 -6 132 -10 375 -10 243 0 375 4 375 10 0 6 -132 10 -375
10 -243 0 -375 -4 -375 -10z"/>
</g>
</svg>
