<?xml version="1.0" standalone="no"?>
<!DOCTYPE svg PUBLIC "-//W3C//DTD SVG 20010904//EN"
 "http://www.w3.org/TR/2001/REC-SVG-20010904/DTD/svg10.dtd">
<svg version="1.0" xmlns="http://www.w3.org/2000/svg"
 width="225.000000pt" height="225.000000pt" viewBox="0 0 225.000000 225.000000"
 preserveAspectRatio="xMidYMid meet">

<g transform="translate(0.000000,225.000000) scale(0.100000,-0.100000)"
fill="#000000" stroke="none">
<path d="M1097 1958 c-14 -11 -17 -37 -19 -166 l-3 -153 -110 -58 c-60 -31
-186 -97 -279 -145 -93 -48 -178 -98 -187 -110 -23 -26 -24 -55 -3 -84 13 -19
24 -22 90 -22 l74 0 0 -375 0 -375 90 0 90 0 2 328 3 327 95 0 95 0 3 -327 2
-328 85 0 85 0 2 328 3 327 95 0 95 0 3 -327 2 -328 90 0 90 0 0 375 0 375 69
0 c80 0 114 19 114 63 0 47 29 29 -453 280 l-145 76 -3 43 -3 43 166 0 165 0
0 92 0 92 -36 7 c-19 3 -84 3 -144 -1 -115 -7 -150 -2 -150 20 0 14 -29 35
-47 35 -5 0 -17 -6 -26 -12z"/>
<path d="M0 725 l0 -445 188 0 187 0 100 95 c54 52 105 95 112 95 10 0 13 69
13 350 l0 350 -300 0 -300 0 0 -445z m240 235 l0 -70 -50 0 -50 0 0 70 0 70
50 0 50 0 0 -70z m230 0 l0 -70 -70 0 -70 0 0 70 0 70 70 0 70 0 0 -70z m-230
-280 l0 -70 -50 0 -50 0 0 70 0 70 50 0 50 0 0 -70z m230 0 l0 -70 -70 0 -70
0 0 70 0 70 70 0 70 0 0 -70z"/>
<path d="M1650 820 c0 -291 2 -350 14 -350 7 0 58 -43 112 -95 l99 -95 188 0
187 0 0 445 0 445 -300 0 -300 0 0 -350z m270 140 l0 -70 -70 0 -70 0 0 70 0
70 70 0 70 0 0 -70z m190 0 l0 -70 -50 0 -50 0 0 70 0 70 50 0 50 0 0 -70z
m-190 -280 l0 -70 -70 0 -70 0 0 70 0 70 70 0 70 0 0 -70z m190 0 l0 -70 -50
0 -50 0 0 63 c0 35 3 67 7 70 3 4 26 7 50 7 l43 0 0 -70z"/>
<path d="M543 352 l-63 -67 319 -3 c176 -1 466 -1 645 0 l325 3 -64 68 -64 67
-518 -1 -518 0 -62 -67z"/>
</g>
</svg>
