<?xml version="1.0" standalone="no"?>
<!DOCTYPE svg PUBLIC "-//W3C//DTD SVG 20010904//EN"
 "http://www.w3.org/TR/2001/REC-SVG-20010904/DTD/svg10.dtd">
<svg version="1.0" xmlns="http://www.w3.org/2000/svg"
 width="225.000000pt" height="225.000000pt" viewBox="0 0 225.000000 225.000000"
 preserveAspectRatio="xMidYMid meet">

<g transform="translate(0.000000,225.000000) scale(0.100000,-0.100000)"
fill="#000000" stroke="none">
<path d="M1035 1750 c-55 -4 -27 -6 90 -7 94 0 166 1 160 2 -21 7 -174 10
-250 5z"/>
<path d="M883 1733 c9 -2 25 -2 35 0 9 3 1 5 -18 5 -19 0 -27 -2 -17 -5z"/>
<path d="M1333 1733 c9 -2 25 -2 35 0 9 3 1 5 -18 5 -19 0 -27 -2 -17 -5z"/>
<path d="M780 1720 c-20 -6 -21 -8 -5 -8 11 0 34 4 50 8 27 7 27 8 5 8 -14 0
-36 -4 -50 -8z"/>
<path d="M1415 1723 c185 -41 292 -79 371 -132 26 -18 42 -26 35 -17 -19 22
-105 71 -171 95 -71 27 -207 61 -234 60 -20 -1 -20 -1 -1 -6z"/>
<path d="M680 1695 c-47 -18 -27 -18 30 -1 25 8 36 15 25 15 -11 0 -36 -7 -55
-14z"/>
<path d="M948 1703 c12 -2 32 -2 45 0 12 2 2 4 -23 4 -25 0 -35 -2 -22 -4z"/>
<path d="M1258 1703 c12 -2 32 -2 45 0 12 2 2 4 -23 4 -25 0 -35 -2 -22 -4z"/>
<path d="M853 1693 c9 -2 25 -2 35 0 9 3 1 5 -18 5 -19 0 -27 -2 -17 -5z"/>
<path d="M1112 1659 l-2 -46 -97 -6 c-54 -3 -140 -15 -191 -27 l-94 -22 -40
38 -39 39 28 12 c15 7 21 12 12 13 -8 0 -23 -6 -32 -13 -16 -11 -14 -16 27
-56 l44 -43 93 22 c52 12 138 24 192 27 65 4 100 10 104 18 2 7 3 30 0 51 -4
38 -4 38 -5 -7z"/>
<path d="M1134 1650 l1 -45 90 -6 c50 -3 113 -9 140 -12 44 -6 46 -5 15 3 -19
6 -81 13 -137 16 l-102 7 -4 41 c-4 41 -4 41 -3 -4z"/>
<path d="M1363 1693 c9 -2 25 -2 35 0 9 3 1 5 -18 5 -19 0 -27 -2 -17 -5z"/>
<path d="M798 1683 c6 -2 18 -2 25 0 6 3 1 5 -13 5 -14 0 -19 -2 -12 -5z"/>
<path d="M1455 1679 c22 -5 64 -16 94 -25 l54 -15 -39 -40 c-34 -35 -43 -40
-74 -35 l-35 5 33 -11 c31 -11 35 -9 77 32 27 26 41 48 36 53 -12 12 -140 47
-166 46 -11 -1 -2 -5 20 -10z"/>
<path d="M725 1670 c-25 -11 1 -11 35 0 20 6 21 8 5 8 -11 0 -29 -3 -40 -8z"/>
<path d="M516 1628 c-89 -47 -164 -115 -196 -177 -12 -24 -20 -45 -17 -47 2
-2 12 13 21 35 27 60 113 137 207 186 46 25 80 44 74 44 -5 0 -45 -18 -89 -41z"/>
<path d="M537 1598 c-100 -54 -207 -167 -207 -217 0 -8 12 8 26 37 14 28 47
71 74 95 48 44 156 107 182 107 8 0 30 -17 50 -37 l36 -38 -60 -35 c-56 -32
-118 -97 -118 -124 0 -6 8 3 18 19 24 39 82 90 134 116 l41 21 -44 44 c-24 24
-50 44 -59 44 -8 0 -41 -15 -73 -32z"/>
<path d="M1585 1588 l-40 -43 42 39 c41 38 46 39 98 21 13 -4 12 -1 -5 9 -38
23 -53 20 -95 -26z"/>
<path d="M1710 1596 c0 -3 14 -13 32 -22 50 -26 128 -105 154 -156 38 -75 37
-77 -63 -81 l-88 -3 88 -2 c72 -2 89 1 94 14 10 27 -39 113 -97 168 -49 47
-120 95 -120 82z"/>
<path d="M1080 1584 c23 -4 30 -11 30 -28 0 -22 -5 -23 -97 -30 -54 -3 -114
-10 -133 -16 -31 -8 -29 -9 15 -3 28 3 88 8 135 12 l85 6 0 30 c0 27 -4 30
-32 33 -33 2 -33 2 -3 -4z"/>
<path d="M1195 1580 c28 -4 88 -13 135 -19 47 -6 96 -14 110 -16 21 -5 22 -4
5 3 -26 12 -141 30 -230 36 -61 4 -64 4 -20 -4z"/>
<path d="M963 1573 c15 -2 39 -2 55 0 15 2 2 4 -28 4 -30 0 -43 -2 -27 -4z"/>
<path d="M1428 1573 c7 -3 16 -2 19 1 4 3 -2 6 -13 5 -11 0 -14 -3 -6 -6z"/>
<path d="M850 1560 c-17 -6 -9 -7 25 -3 28 3 52 7 54 9 8 7 -54 2 -79 -6z"/>
<path d="M1131 1552 c-1 -28 2 -29 124 -35 69 -3 86 -2 55 3 -25 5 -73 9 -107
9 -56 1 -62 3 -66 24 l-4 22 -2 -23z"/>
<path d="M1875 1518 c22 -27 41 -48 42 -48 10 0 -19 39 -48 65 -30 28 -29 26
6 -17z"/>
<path d="M775 1540 c-13 -5 -14 -9 -5 -9 8 0 24 4 35 9 13 5 14 9 5 9 -8 0
-24 -4 -35 -9z"/>
<path d="M1585 1518 c22 -11 58 -34 80 -50 l40 -30 -35 32 c-34 31 -101 70
-117 70 -4 -1 10 -10 32 -22z"/>
<path d="M737 1523 c-12 -11 -8 -43 6 -48 6 -3 32 2 57 10 43 15 14 14 -39 -1
-22 -6 -23 -5 -19 19 6 29 5 31 -5 20z"/>
<path d="M1507 1510 c4 -13 0 -26 -8 -32 -12 -8 -11 -9 1 -5 18 5 26 35 11 50
-7 7 -8 3 -4 -13z"/>
<path d="M639 1479 c-44 -32 -75 -58 -53 -46 35 20 114 77 107 77 -6 0 -30
-14 -54 -31z"/>
<path d="M1410 1495 c30 -8 60 -14 65 -14 20 2 -71 27 -95 27 -14 0 0 -6 30
-13z"/>
<path d="M1551 1506 c2 -2 15 -9 29 -15 24 -11 24 -11 6 3 -16 13 -49 24 -35
12z"/>
<path d="M710 1482 c0 -12 -14 -25 -41 -37 -22 -10 -58 -36 -80 -58 -39 -40
-52 -32 -23 13 l16 25 -21 -24 c-12 -13 -21 -29 -21 -37 0 -26 18 -22 51 12
19 20 55 47 82 60 32 17 47 31 47 44 0 11 -2 20 -5 20 -3 0 -5 -8 -5 -18z"/>
<path d="M1531 1483 c-1 -18 10 -28 48 -48 28 -13 66 -42 87 -62 27 -28 32
-31 20 -12 -18 28 -72 69 -118 90 -15 6 -29 21 -31 33 -4 20 -4 20 -6 -1z"/>
<path d="M1640 1452 c0 -4 10 -13 23 -21 22 -14 22 -14 3 8 -20 22 -26 25 -26
13z"/>
<path d="M1926 1447 c3 -10 9 -15 12 -12 3 3 0 11 -7 18 -10 9 -11 8 -5 -6z"/>
<path d="M882 1405 c-41 -7 -77 -17 -80 -21 -4 -4 4 -4 18 -1 149 36 477 35
611 -1 95 -25 185 -70 223 -111 l30 -31 -24 -25 c-27 -29 -42 -31 -60 -9 -8 8
-23 20 -34 26 -12 5 -5 -4 14 -20 19 -17 40 -31 46 -32 5 0 23 14 39 30 l29
30 -35 36 c-43 46 -130 90 -228 116 -99 27 -435 35 -549 13z"/>
<path d="M1946 1405 c4 -11 10 -49 14 -85 l7 -65 1 55 c1 30 -6 69 -14 85 -8
17 -11 21 -8 10z"/>
<path d="M1691 1390 c14 -31 19 -36 19 -24 0 6 -7 19 -16 30 -14 18 -14 18 -3
-6z"/>
<path d="M1726 1375 c8 -37 14 -45 14 -19 0 10 -5 26 -10 34 -8 11 -9 7 -4
-15z"/>
<path d="M286 1359 c-3 -17 -5 -46 -5 -63 1 -18 5 -7 10 28 9 63 6 88 -5 35z"/>
<path d="M695 1346 c-38 -19 -85 -51 -104 -70 l-35 -36 29 -30 c16 -16 32 -30
37 -30 4 0 27 14 50 30 24 17 70 41 103 55 33 13 53 25 45 25 -22 0 -119 -47
-157 -76 -40 -30 -44 -30 -74 2 l-24 26 43 38 c23 21 75 52 115 69 40 17 65
30 57 31 -8 0 -46 -16 -85 -34z"/>
<path d="M510 1357 c0 -15 -13 -17 -89 -17 -51 0 -92 4 -94 10 -3 6 -4 5 -3
-2 2 -9 30 -14 94 -16 77 -2 93 0 98 13 4 9 4 19 0 22 -3 4 -6 -1 -6 -10z"/>
<path d="M972 1319 c-40 -5 -87 -13 -105 -19 -32 -10 -32 -10 -2 -5 191 28
333 28 520 0 l30 -5 -30 10 c-80 26 -275 35 -413 19z"/>
<path d="M327 1314 c-22 -22 19 -143 59 -174 18 -14 18 -14 2 5 -26 31 -58
106 -58 138 l0 27 89 0 89 0 6 -33 c9 -46 68 -112 132 -149 l54 -30 -43 -48
c-23 -27 -48 -49 -55 -50 -7 0 -31 9 -52 20 -22 11 -40 18 -40 15 0 -11 84
-46 101 -42 11 3 19 1 19 -4 0 -11 62 -39 82 -38 7 0 -5 7 -26 15 -22 8 -42
16 -45 19 -3 3 20 31 50 63 l54 57 -52 -50 c-60 -55 -73 -51 -17 6 l36 37 -28
18 c-86 52 -105 66 -127 96 -14 18 -29 49 -34 68 l-9 35 -90 3 c-50 1 -93 0
-97 -4z"/>
<path d="M1834 1313 l89 -4 -6 -46 c-3 -33 -2 -42 5 -30 5 10 8 32 6 50 l-3
32 -90 1 -90 0 89 -3z"/>
<path d="M1727 1273 c-8 -43 -60 -99 -124 -135 -63 -35 -71 -48 -12 -17 81 41
160 132 147 171 -3 7 -7 -1 -11 -19z"/>
<path d="M1450 1275 c46 -18 64 -17 25 0 -16 8 -37 14 -45 14 -8 0 1 -7 20
-14z"/>
<path d="M1125 1263 l270 -3 69 -68 c38 -37 65 -60 60 -51 -5 9 -37 41 -70 73
l-62 56 -268 -2 -269 -3 270 -2z"/>
<path d="M293 1205 c0 -33 3 -94 7 -135 l7 -75 0 60 c0 33 -3 94 -7 135 l-7
75 0 -60z"/>
<path d="M782 1197 c-68 -68 -69 -80 -6 -93 24 -4 35 1 64 33 l35 38 -35 -32
c-39 -36 -46 -38 -86 -23 l-28 11 64 64 c36 36 62 65 59 65 -2 0 -33 -28 -67
-63z"/>
<path d="M1956 1229 c-3 -13 -10 -100 -16 -194 -6 -94 -18 -191 -26 -217 -9
-26 -36 -71 -61 -100 l-45 -53 50 53 c67 69 80 113 96 342 12 177 13 221 2
169z"/>
<path d="M913 1223 l58 -4 -21 -35 c-12 -18 -19 -34 -17 -34 3 0 15 16 27 35
20 33 25 35 73 34 41 0 47 -2 30 -9 -36 -14 -27 -19 12 -7 64 19 36 27 -92 25
-71 -1 -102 -3 -70 -5z"/>
<path d="M1140 1221 c0 -5 12 -12 28 -16 47 -11 72 -33 72 -64 0 -48 -31 -66
-115 -66 -47 0 -68 -3 -58 -9 8 -4 42 -6 74 -4 69 5 109 34 109 79 0 29 -37
67 -69 71 -9 1 36 5 99 8 l115 6 -127 2 c-71 1 -128 -2 -128 -7z"/>
<path d="M1301 1173 c41 -68 60 -93 72 -92 9 0 9 2 0 6 -7 2 -29 31 -48 64
-20 32 -39 59 -42 59 -2 0 6 -17 18 -37z"/>
<path d="M1896 1193 c-6 -14 -5 -15 5 -6 7 7 10 15 7 18 -3 3 -9 -2 -12 -12z"/>
<path d="M826 1191 c-3 -5 15 -6 41 -3 l47 5 -28 -47 c-20 -34 -25 -51 -17
-59 12 -12 36 5 52 37 6 12 0 8 -14 -9 -38 -45 -43 -23 -8 34 l31 51 -50 0
c-27 0 -51 -4 -54 -9z"/>
<path d="M1330 1191 c0 -6 5 -13 12 -17 7 -5 8 -3 3 6 -6 9 3 11 38 9 25 -2
43 -1 40 4 -6 10 -93 9 -93 -2z"/>
<path d="M1011 1172 c-17 -32 -13 -57 12 -78 22 -19 22 -19 5 2 -21 24 -23 55
-6 72 6 6 9 14 6 18 -4 3 -11 -3 -17 -14z"/>
<path d="M1049 1161 c-23 -19 -24 -19 -5 -40 11 -12 26 -21 35 -20 11 0 9 3
-5 9 -33 13 -40 31 -19 47 32 23 44 15 48 -29 l4 -43 1 48 c2 40 -1 47 -17 47
-10 0 -29 -9 -42 -19z"/>
<path d="M1140 1135 c0 -25 2 -45 5 -45 21 0 75 32 75 44 0 18 -38 46 -62 46
-15 0 -18 -9 -18 -45z m51 25 c28 -15 23 -37 -11 -49 -30 -10 -30 -9 -30 25 0
36 9 41 41 24z"/>
<path d="M1388 1165 c6 -11 22 -31 36 -44 23 -21 29 -23 58 -13 l33 11 -35 -6
c-30 -5 -38 -1 -68 33 -18 22 -29 30 -24 19z"/>
<path d="M775 1144 c-20 -15 -20 -16 4 -12 14 2 26 9 29 16 5 16 -9 15 -33 -4z"/>
<path d="M1359 1145 c17 -33 31 -51 31 -40 0 6 -10 21 -21 35 -13 17 -17 18
-10 5z"/>
<path d="M1450 1145 c7 -8 19 -15 27 -15 13 0 13 3 3 15 -7 8 -19 15 -27 15
-13 0 -13 -3 -3 -15z"/>
<path d="M1834 1108 l-29 -33 33 29 c30 28 37 36 29 36 -2 0 -16 -15 -33 -32z"/>
<path d="M380 1085 c19 -19 36 -35 39 -35 3 0 -10 16 -29 35 -19 19 -36 35
-39 35 -3 0 10 -16 29 -35z"/>
<path d="M400 1117 c0 -3 17 -17 37 -33 20 -15 33 -23 29 -16 -8 13 -66 56
-66 49z"/>
<path d="M1864 1089 c-16 -17 -50 -45 -76 -61 -54 -35 -63 -46 -19 -23 29 14
141 114 130 115 -3 0 -18 -14 -35 -31z"/>
<path d="M1907 1071 c-4 -24 -14 -57 -23 -75 -14 -28 -14 -29 1 -11 18 23 38
90 33 113 -2 9 -7 -3 -11 -27z"/>
<path d="M1495 1090 c-16 -7 -17 -9 -3 -9 9 -1 20 4 23 9 7 11 7 11 -20 0z"/>
<path d="M765 1080 c11 -5 27 -9 35 -9 9 0 8 4 -5 9 -11 5 -27 9 -35 9 -9 0
-8 -4 5 -9z"/>
<path d="M1549 1062 c10 -15 32 -38 48 -52 24 -21 23 -19 -4 11 -49 52 -40 60
12 9 l44 -44 49 23 c27 13 62 34 78 47 19 16 9 12 -30 -11 -90 -53 -92 -53
-142 -4 -51 50 -86 63 -55 21z"/>
<path d="M1405 1069 c-22 -6 -92 -15 -155 -22 l-115 -12 -3 -63 c-2 -50 0 -63
13 -68 9 -4 62 -2 118 4 l102 10 -112 -5 -113 -6 0 61 0 60 88 7 c89 7 231 31
240 40 7 7 -16 5 -63 -6z"/>
<path d="M828 1063 c6 -2 18 -2 25 0 6 3 1 5 -13 5 -14 0 -19 -2 -12 -5z"/>
<path d="M341 1051 c-2 -30 42 -102 84 -139 52 -46 161 -106 175 -97 12 7 14
131 3 138 -5 3 -7 -26 -5 -64 2 -38 1 -69 -3 -69 -4 0 -35 15 -69 32 -79 42
-149 112 -169 169 -8 24 -16 38 -16 30z"/>
<path d="M899 1050 c19 -4 74 -11 123 -15 l88 -7 0 -60 0 -61 -112 6 -113 5
102 -10 c56 -6 109 -8 118 -4 13 5 15 18 13 68 l-3 63 -65 7 c-139 14 -187 17
-151 8z"/>
<path d="M454 1026 c22 -19 109 -66 123 -66 4 0 -20 16 -55 34 -35 19 -69 38
-75 43 -7 4 -4 0 7 -11z"/>
<path d="M313 930 c0 -36 2 -50 4 -32 2 17 2 47 0 65 -2 17 -4 3 -4 -33z"/>
<path d="M1560 965 c-19 -7 -28 -14 -20 -14 8 0 29 6 45 14 39 17 21 18 -25 0z"/>
<path d="M1668 964 c-26 -14 -28 -19 -28 -79 0 -35 4 -66 10 -70 10 -6 125 48
134 64 3 5 -22 -6 -57 -25 -34 -18 -65 -34 -69 -34 -5 0 -8 28 -8 63 0 61 1
64 33 80 17 8 28 16 22 16 -5 0 -22 -7 -37 -15z"/>
<path d="M1829 923 l-34 -38 38 34 c20 19 37 36 37 38 0 8 -8 0 -41 -34z"/>
<path d="M750 940 c14 -4 34 -8 45 -8 16 0 15 2 -5 8 -14 4 -34 8 -45 8 -16 0
-15 -2 5 -8z"/>
<path d="M1460 940 c-20 -6 -21 -8 -5 -8 11 0 31 4 45 8 20 6 21 8 5 8 -11 0
-31 -4 -45 -8z"/>
<path d="M624 926 c-3 -7 -3 -38 -1 -67 l3 -54 2 64 2 64 28 -7 c15 -3 38 -8
52 -11 15 -3 11 1 -10 9 -45 19 -69 19 -76 2z"/>
<path d="M1530 920 c-36 -10 -56 -19 -45 -19 11 -1 42 6 69 14 27 8 53 15 58
15 4 0 8 -28 8 -63 l0 -63 -47 -17 c-27 -9 -36 -15 -21 -12 75 14 79 19 76 92
-3 79 -4 79 -98 53z"/>
<path d="M357 923 c-10 -9 -8 -66 2 -82 5 -8 7 5 4 35 l-6 49 34 -30 34 -30
-29 33 c-34 36 -30 34 -39 25z"/>
<path d="M843 923 c9 -2 23 -2 30 0 6 3 -1 5 -18 5 -16 0 -22 -2 -12 -5z"/>
<path d="M1388 923 c6 -2 18 -2 25 0 6 3 1 5 -13 5 -14 0 -19 -2 -12 -5z"/>
<path d="M1850 893 l-35 -38 35 33 c20 17 39 32 42 32 13 0 -5 -76 -28 -118
-12 -23 -19 -40 -13 -37 31 20 68 153 44 162 -6 2 -26 -14 -45 -34z"/>
<path d="M748 903 c6 -2 18 -2 25 0 6 3 1 5 -13 5 -14 0 -19 -2 -12 -5z"/>
<path d="M798 893 c6 -2 18 -2 25 0 6 3 1 5 -13 5 -14 0 -19 -2 -12 -5z"/>
<path d="M1428 893 c6 -2 18 -2 25 0 6 3 1 5 -13 5 -14 0 -19 -2 -12 -5z"/>
<path d="M890 880 c25 -5 68 -9 95 -9 28 -1 67 -4 88 -7 l37 -7 0 -65 0 -65
-117 5 c-92 5 -105 4 -58 -3 33 -5 87 -8 120 -7 l60 3 0 70 0 69 -35 7 c-19 4
-80 9 -135 12 -68 3 -85 2 -55 -3z"/>
<path d="M1358 883 c12 -2 30 -2 40 0 9 3 -1 5 -23 4 -22 0 -30 -2 -17 -4z"/>
<path d="M1165 871 c-30 -6 -30 -7 -31 -71 l0 -65 3 62 4 62 52 5 c29 4 72 8
97 9 25 2 14 4 -25 4 -38 0 -83 -2 -100 -6z"/>
<path d="M440 856 c7 -10 27 -24 44 -33 38 -19 32 -12 -19 23 -22 14 -33 19
-25 10z"/>
<path d="M320 847 c0 -21 35 -93 51 -103 6 -3 3 5 -6 20 -10 14 -23 43 -31 64
-7 20 -13 29 -14 19z"/>
<path d="M1780 839 c-22 -18 -22 -19 -3 -10 12 6 25 16 28 21 9 15 3 12 -25
-11z"/>
<path d="M370 811 c0 -6 4 -13 10 -16 6 -3 7 1 4 9 -7 18 -14 21 -14 7z"/>
<path d="M1710 800 c-19 -11 -31 -19 -27 -20 11 0 67 29 67 35 0 7 -1 7 -40
-15z"/>
<path d="M527 799 c7 -7 15 -10 18 -7 3 3 -2 9 -12 12 -14 6 -15 5 -6 -5z"/>
<path d="M665 786 c17 -7 46 -16 65 -19 30 -6 29 -4 -9 8 -66 22 -90 26 -56
11z"/>
<path d="M578 778 c19 -10 22 -19 24 -77 l2 -66 3 65 c3 53 1 67 -13 77 -10 7
-23 13 -28 12 -6 0 -1 -5 12 -11z"/>
<path d="M430 737 c40 -43 134 -107 156 -107 5 0 -16 14 -46 31 -30 17 -77 52
-105 78 l-50 46 45 -48z"/>
<path d="M1644 766 c-3 -7 -3 -40 -1 -72 l3 -59 2 67 c1 42 7 68 15 71 9 4 9
6 -1 6 -7 1 -15 -5 -18 -13z"/>
<path d="M1498 763 c7 -3 16 -2 19 1 4 3 -2 6 -13 5 -11 0 -14 -3 -6 -6z"/>
<path d="M624 746 c-3 -7 -4 -40 -2 -72 3 -64 14 -75 83 -88 17 -4 8 2 -20 12
l-50 19 -3 66 c-2 37 1 67 5 67 4 0 30 -7 57 -15 27 -8 56 -15 65 -14 14 0
-103 38 -122 39 -4 0 -10 -6 -13 -14z"/>
<path d="M778 753 c6 -2 18 -2 25 0 6 3 1 5 -13 5 -14 0 -19 -2 -12 -5z"/>
<path d="M1448 753 c6 -2 18 -2 25 0 6 3 1 5 -13 5 -14 0 -19 -2 -12 -5z"/>
<path d="M1610 753 c5 -2 10 -33 10 -68 0 -50 -4 -66 -17 -74 -10 -6 -13 -11
-7 -11 24 0 35 29 32 91 -2 41 -7 63 -16 65 -7 1 -8 0 -2 -3z"/>
<path d="M828 743 c6 -2 18 -2 25 0 6 3 1 5 -13 5 -14 0 -19 -2 -12 -5z"/>
<path d="M1398 743 c6 -2 18 -2 25 0 6 3 1 5 -13 5 -14 0 -19 -2 -12 -5z"/>
<path d="M1525 735 c-22 -8 -31 -13 -20 -13 11 0 36 6 55 13 45 17 18 17 -35
0z"/>
<path d="M1798 719 c-21 -17 -61 -43 -90 -59 -29 -17 -48 -30 -43 -30 16 0
107 56 145 89 45 39 36 39 -12 0z"/>
<path d="M1318 733 c12 -2 30 -2 40 0 9 3 -1 5 -23 4 -22 0 -30 -2 -17 -4z"/>
<path d="M400 705 c13 -14 26 -25 28 -25 3 0 -5 11 -18 25 -13 14 -26 25 -28
25 -3 0 5 -11 18 -25z"/>
<path d="M1183 723 c20 -2 54 -2 75 0 20 2 3 4 -38 4 -41 0 -58 -2 -37 -4z"/>
<path d="M788 713 c7 -3 16 -2 19 1 4 3 -2 6 -13 5 -11 0 -14 -3 -6 -6z"/>
<path d="M1448 713 c6 -2 18 -2 25 0 6 3 1 5 -13 5 -14 0 -19 -2 -12 -5z"/>
<path d="M860 700 c46 -9 127 -13 119 -6 -2 2 -40 6 -84 9 -60 4 -69 3 -35 -3z"/>
<path d="M1383 703 c9 -2 25 -2 35 0 9 3 1 5 -18 5 -19 0 -27 -2 -17 -5z"/>
<path d="M1293 693 c15 -2 37 -2 50 0 12 2 0 4 -28 4 -27 0 -38 -2 -22 -4z"/>
<path d="M1048 683 l62 -4 0 -71 0 -71 -87 7 c-49 4 -110 9 -138 11 l-50 4 43
-9 c24 -5 87 -10 140 -12 l97 -3 0 75 0 75 -65 1 -65 1 63 -4z"/>
<path d="M1134 676 c-3 -7 -4 -42 -2 -77 l3 -64 97 3 c53 2 116 7 140 12 l43
9 -50 -4 c-27 -2 -89 -7 -137 -11 l-88 -7 0 71 0 71 63 4 62 3 -63 2 c-45 1
-64 -2 -68 -12z"/>
<path d="M440 676 c0 -2 8 -10 18 -17 15 -13 16 -12 3 4 -13 16 -21 21 -21 13z"/>
<path d="M1770 649 c-22 -18 -22 -19 -3 -10 12 6 25 16 28 21 9 15 3 12 -25
-11z"/>
<path d="M500 631 c14 -11 30 -21 35 -21 11 0 -7 14 -40 31 -13 7 -12 3 5 -10z"/>
<path d="M1700 610 c-19 -11 -31 -19 -27 -20 11 0 67 29 67 35 0 7 -1 7 -40
-15z"/>
<path d="M580 590 c8 -5 20 -10 25 -10 6 0 3 5 -5 10 -8 5 -19 10 -25 10 -5 0
-3 -5 5 -10z"/>
<path d="M1515 585 c-22 -8 -31 -13 -20 -13 11 0 36 6 55 13 45 17 18 17 -35
0z"/>
<path d="M1575 565 c-38 -13 -63 -24 -54 -24 17 -1 139 39 139 45 0 6 -10 4
-85 -21z"/>
<path d="M649 564 c18 -8 47 -17 65 -20 17 -2 4 4 -29 16 -70 23 -84 25 -36 4z"/>
<path d="M748 573 c6 -2 18 -2 25 0 6 3 1 5 -13 5 -14 0 -19 -2 -12 -5z"/>
<path d="M798 563 c7 -3 16 -2 19 1 4 3 -2 6 -13 5 -11 0 -14 -3 -6 -6z"/>
<path d="M1438 563 c6 -2 18 -2 25 0 6 3 1 5 -13 5 -14 0 -19 -2 -12 -5z"/>
<path d="M770 530 c25 -8 87 -13 79 -6 -2 2 -26 6 -54 9 -34 4 -42 3 -25 -3z"/>
<path d="M1478 533 c7 -3 16 -2 19 1 4 3 -2 6 -13 5 -11 0 -14 -3 -6 -6z"/>
<path d="M1365 520 c-34 -6 -36 -7 -10 -8 17 0 48 3 70 7 33 7 35 9 10 8 -16
0 -48 -3 -70 -7z"/>
<path d="M900 510 c48 -10 409 -15 418 -6 2 3 -71 5 -164 5 -93 0 -199 2 -234
5 -57 4 -60 4 -20 -4z"/>
</g>
</svg>
